[center]

[img]http://img198.imageshack.us/img198/2477/ejhv4hj3.jpg[/img] 
http://imdb.com/title/tt1493815/

In post-Katrina New Orleans, a disgraced detective encounters the ghost of a murdered woman who wants to help him identify her killer..

General
Complete name : Little.Murder.2011.DVDRip.XviD.OCW.avi
Format : AVI
Format/Info : Audio Video Interleave
File size : 1.02 GiB
Duration : 1h 33mn
Overall bit rate : 1 564 Kbps

Video
ID : 0
Format : AVC
Format/Info : Advanced Video Codec
Format profile : High@L5.1
Format settings, CABAC : Yes
Format settings, ReFrames : 2 frames
Codec ID : H264
Duration : 1h 33mn
Bit rate : 1 362 Kbps
Width : 1 024 pixels
Height : 576 pixels
Display aspect ratio : 16:9
Frame rate : 25.000 fps
Color space : YUV
Chroma subsampling : 4:2:0
Bit depth : 8 bits
Scan type : Progressive
Bits/(Pixel*Frame) : 0.092
Stream size : 914 MiB (87%)

Audio
ID : 1
Format : MPEG Audio
Format version : Version 1
Format profile : Layer 3
Codec ID : 55
Codec ID/Hint : MP3
Duration : 1h 33mn
Bit rate mode : Constant
Bit rate : 192 Kbps
Channel(s) : 2 channels
Sampling rate : 44.1 KHz
Compression mode : Lossy
Stream size : 129 MiB (12%)
Alignment : Split accross interleaves
Interleave, duration : 40 ms (1.01 video frame)
Interleave, preload duration : 457 ms

[img]http://img15.imageshack.us/img15/4290/ewwsbayu.png[/img]
[img]http://img94.imageshack.us/img94/7026/jhjrtjxe.png[/img][/center]